<svg width="287" height="123" viewBox="0 0 287 123" fill="none" xmlns="http://www.w3.org/2000/svg">
<path d="M35.4 23.984C36.168 23.472 38.8133 25.008 43.336 28.592C47.944 32.0907 50.0773 35.5893 49.736 39.088C49.48 42.5013 49.2667 44.8907 49.096 46.256C48.9253 47.536 48.3707 48.7733 47.432 49.968C46.5787 51.0773 45.9387 51.7173 45.512 51.888C45.1707 52.0587 44.4453 51.76 43.336 50.992C42.312 50.1387 41.8853 47.8347 42.056 44.08C42.312 40.3253 41.0747 36.1867 38.344 31.664C35.6987 27.056 34.7173 24.496 35.4 23.984ZM23.88 42.288C23.4533 45.5307 25.7573 48.0907 30.792 49.968C35.8267 51.76 38.088 54.6613 37.576 58.672C37.1493 62.5973 36.8507 65.2 36.68 66.48C36.5093 67.76 36.2533 68.656 35.912 69.168C35.656 69.68 34.9733 69.936 33.864 69.936C32.7547 69.936 31.688 69.424 30.664 68.4C29.7253 67.2907 29.128 65.584 28.872 63.28C28.616 60.8907 27.7627 58.16 26.312 55.088C24.9467 52.016 24.0507 61.744 23.624 84.272C23.2827 106.715 23.1973 118.149 23.368 118.576C23.624 119.088 23.2827 119.301 22.344 119.216C21.4907 119.131 20.808 119.6 20.296 120.624C19.784 121.733 19.0587 122.117 18.12 121.776C17.2667 121.435 16.6267 121.264 16.2 121.264C15.7733 121.264 15.4747 112.261 15.304 94.256C15.1333 76.2507 14.1093 69.3813 12.232 73.648C10.3547 77.8293 8.09333 81.8827 5.448 85.808C2.888 89.7333 1.39467 91.184 0.968 90.16C0.626667 89.136 2.16267 85.6373 5.576 79.664C8.98933 73.6053 11.2933 65.072 12.488 54.064C13.6827 42.9707 12.232 37.1253 8.136 36.528C4.04 35.8453 1.90667 35.2053 1.736 34.608C1.65067 33.9253 3.95467 33.4133 8.648 33.072C13.3413 32.6453 15.432 27.3547 14.92 17.2C14.4933 6.96 16.4133 1.96799 20.68 2.22399C25.032 2.39466 27.1653 3.29066 27.08 4.91199C26.9947 6.448 26.44 7.04533 25.416 6.70399C24.4773 6.27733 23.9227 10.3733 23.752 18.992C23.6667 27.6107 23.6667 32.0907 23.752 32.432C23.8373 32.7733 24.8613 31.664 26.824 29.104C28.7867 26.4587 30.6213 25.904 32.328 27.44C34.0347 28.976 35.4 30.7253 36.424 32.688C37.5333 34.6507 37.9173 35.8453 37.576 36.272C37.2347 36.6133 36.7653 36.5707 36.168 36.144C35.656 35.632 33.608 35.7173 30.024 36.4C26.44 37.0827 24.392 39.0453 23.88 42.288ZM49.608 32.304C49.6933 12.592 51.8693 2.90666 56.136 3.24799C60.4027 3.504 62.3653 4.31466 62.024 5.67999C61.6827 6.96 60.9147 7.55733 59.72 7.47199C58.6107 7.38666 58.056 16.8587 58.056 35.888C58.1413 54.9173 58.056 67.9733 57.8 75.056C57.544 82.1387 56.4773 87.8133 54.6 92.08C52.808 96.3467 50.9307 100.827 48.968 105.52C47.0053 110.128 43.208 113.755 37.576 116.4C31.944 119.045 29.0853 120.155 29 119.728C28.9147 119.387 32.2427 116.656 38.984 111.536C45.8107 106.416 49.224 97.6267 49.224 85.168C49.224 72.7093 48.584 67.632 47.304 69.936C46.1093 72.24 44.488 74.8853 42.44 77.872C40.392 80.8587 39.4533 82.9067 39.624 84.016C39.7947 85.1253 39.624 85.8933 39.112 86.32C38.6853 86.6613 37.3627 85.0827 35.144 81.584C32.9253 78 33.0533 75.312 35.528 73.52C38.0027 71.6427 40.9467 69.2107 44.36 66.224C47.7733 63.2373 49.5227 51.9307 49.608 32.304ZM92.36 97.84C92.5307 102.277 93.256 105.221 94.536 106.672C95.9013 108.037 96.5413 108.933 96.456 109.36C96.3707 109.787 96.328 110.512 96.328 111.536C96.4133 112.645 95.944 113.499 94.92 114.096C93.9813 114.693 93.0427 115.077 92.104 115.248C91.1653 115.504 89.2453 115.931 86.344 116.528C83.4427 117.125 81.0107 117.211 79.048 116.784C77.1707 116.443 75.2507 116.187 73.288 116.016C71.3253 115.845 69.8747 115.589 68.936 115.248C67.9973 114.992 67.2293 114.608 66.632 114.096C66.12 113.584 65.7787 112.005 65.608 109.36C65.5227 106.629 65.48 88.3253 65.48 54.448C65.48 20.4853 67.6987 3.67466 72.136 4.01599C76.6587 4.35733 78.9627 5.16799 79.048 6.448C79.2187 7.64266 78.4507 8.41066 76.744 8.752C75.1227 9.008 74.568 14.5547 75.08 25.392C75.592 36.144 76.7867 39.5573 78.664 35.632C80.6267 31.6213 81.736 28.08 81.992 25.008C82.3333 21.8507 84.3813 21.7227 88.136 24.624C91.976 27.5253 93.8533 29.616 93.768 30.896C93.6827 32.0907 93.0853 32.4747 91.976 32.048C90.8667 31.6213 89.288 32.7733 87.24 35.504C85.2773 38.1493 82.7173 40.6667 79.56 43.056C76.4027 45.36 74.9093 48.432 75.08 52.272C75.336 56.112 77.9813 59.2267 83.016 61.616C88.136 63.92 90.7387 67.0773 90.824 71.088C90.9093 75.0987 90.952 77.7867 90.952 79.152C90.952 80.5173 90.6107 81.7973 89.928 82.992C89.3307 84.1013 88.648 84.8267 87.88 85.168C87.112 85.424 86.1733 84.912 85.064 83.632C84.04 82.2667 83.3573 80.304 83.016 77.744C82.6747 75.184 81.1813 72.0693 78.536 68.4C75.8907 64.7307 74.4827 69.5093 74.312 82.736C74.1413 95.9627 74.3547 103.344 74.952 104.88C75.5493 106.416 76.1893 107.312 76.872 107.568C77.5547 107.739 78.792 107.483 80.584 106.8C82.376 106.032 83.656 105.733 84.424 105.904C85.192 106.075 85.7893 106.416 86.216 106.928C86.728 107.355 87.1547 107.312 87.496 106.8C87.9227 106.203 88.2213 105.648 88.392 105.136C88.648 104.539 88.9467 104.112 89.288 103.856C89.6293 103.6 90.184 101.424 90.952 97.328C91.8053 93.232 92.232 91.184 92.232 91.184C92.232 91.0987 92.2747 93.3173 92.36 97.84ZM137.995 20.016C130.998 20.1013 126.731 21.5947 125.195 24.496C123.659 27.312 121.739 30.0853 119.435 32.816C117.216 35.5467 116.619 37.2533 117.643 37.936C118.752 38.5333 122.934 39.0027 130.187 39.344C137.526 39.6853 141.835 38.4907 143.115 35.76C144.48 32.944 145.718 29.616 146.827 25.776C147.936 21.8507 144.992 19.9307 137.995 20.016ZM158.987 42.288C151.99 42.032 148.235 46.64 147.723 56.112C147.211 65.584 150.454 70.3627 157.451 70.448C164.448 70.448 168.203 65.84 168.715 56.624C169.227 47.3227 165.984 42.544 158.987 42.288ZM118.667 56.496C118.326 65.2 121.568 69.5947 128.395 69.68C135.307 69.68 138.635 65.2 138.379 56.24C138.123 47.1947 134.88 42.8 128.651 43.056C122.422 43.2267 119.094 47.7067 118.667 56.496ZM184.587 94.768C184.246 101.339 185.227 104.923 187.531 105.52C189.835 106.117 190.816 106.843 190.475 107.696C190.134 108.549 189.963 109.531 189.963 110.64C190.048 111.749 189.451 112.645 188.171 113.328C186.891 114.011 185.355 114.907 183.563 116.016C181.771 117.211 178.656 117.808 174.219 117.808C169.867 117.893 161.376 117.979 148.747 118.064C136.118 118.235 127.798 118.107 123.787 117.68C119.776 117.253 117.003 116.613 115.467 115.76C113.931 114.992 112.395 114.053 110.859 112.944C109.408 111.92 108.854 109.36 109.195 105.264C109.536 101.083 109.408 90.0747 108.811 72.24C108.299 54.4053 107.147 46.8533 105.355 49.584C103.563 52.3147 101.558 54.064 99.339 54.832C97.1203 55.6 95.627 56.0267 94.859 56.112C94.1763 56.1973 97.0777 52.8267 103.563 46C110.134 39.088 115.168 29.744 118.667 17.968C122.251 6.19199 126.176 1.19999 130.443 2.992C134.71 4.78399 136.843 6.10666 136.843 6.95999C136.843 7.81333 136.246 8.06933 135.051 7.728C133.942 7.30133 133.174 7.68533 132.747 8.88C132.32 9.98933 131.51 11.4827 130.315 13.36C129.12 15.152 131.766 16.2613 138.251 16.688C144.736 17.0293 148.875 15.792 150.667 12.976C152.544 10.16 155.19 10.8853 158.603 15.152C162.102 19.4187 163.68 21.7227 163.339 22.064C162.998 22.4053 162.358 22.32 161.419 21.808C160.566 21.296 158.603 23.088 155.531 27.184C152.459 31.28 149.899 34.352 147.851 36.4C145.888 38.448 148.662 39.3867 156.171 39.216C163.68 39.0453 168.118 38.0213 169.483 36.144C170.934 34.2667 173.536 34.864 177.291 37.936C181.046 41.008 182.71 42.8427 182.283 43.44C181.942 44.0373 181.088 44.6773 179.723 45.36C178.358 45.9573 177.846 51.888 178.187 63.152C178.528 74.416 178.614 80.048 178.443 80.048C178.272 79.9627 177.718 80.304 176.779 81.072C175.926 81.7547 175.03 82.096 174.091 82.096C173.152 82.0107 172.256 82.0107 171.403 82.096C170.635 82.1813 169.782 82.3093 168.843 82.48C167.99 82.5653 167.776 81.2427 168.203 78.512C168.715 75.696 160.608 74.3733 143.883 74.544C127.158 74.6293 118.71 78.896 118.539 87.344C118.368 95.7067 118.155 100.613 117.899 102.064C117.643 103.429 118.07 104.283 119.179 104.624C120.288 104.88 121.355 105.349 122.379 106.032C123.488 106.629 124.768 106.8 126.219 106.544C127.67 106.288 134.624 106.245 147.083 106.416C159.542 106.501 167.435 106.629 170.763 106.8C174.091 106.971 176.054 106.203 176.651 104.496C177.248 102.704 177.974 101.211 178.827 100.016C179.766 98.8213 180.918 96.176 182.283 92.08C183.734 87.8987 184.544 85.68 184.715 85.424C184.971 85.0827 184.928 88.1973 184.587 94.768ZM218.321 45.488C219.345 45.8293 220.625 44.4213 222.161 41.264C223.697 38.1067 225.233 34.6507 226.769 30.896C228.39 27.056 227.153 25.136 223.057 25.136C219.046 25.0507 216.998 28.336 216.913 34.992C216.913 41.648 217.382 45.1467 218.321 45.488ZM219.985 66.096C214.353 66.5227 211.409 66.8213 211.153 66.992C210.982 67.0773 210.641 69.8507 210.129 75.312C209.617 80.7733 212.39 83.2907 218.449 82.864C224.508 82.4373 227.708 79.408 228.049 73.776C228.39 68.144 225.702 65.584 219.985 66.096ZM218.833 105.264C224.636 105.264 227.537 102.363 227.537 96.56C227.537 90.7573 224.678 87.7707 218.961 87.6C213.244 87.344 210.342 90.2453 210.257 96.304C210.172 102.277 213.03 105.264 218.833 105.264ZM222.929 18.352C224.55 14.768 225.873 13.7867 226.897 15.408C228.006 16.944 228.988 18.3947 229.841 19.76C230.694 21.1253 231.59 20.528 232.529 17.968C233.468 15.408 234.449 13.0187 235.473 10.8C236.497 8.49599 238.929 8.24 242.769 10.032C246.609 11.824 248.444 13.36 248.273 14.64C248.188 15.92 247.334 16.2187 245.713 15.536C244.177 14.8533 242.47 17.3707 240.593 23.088C238.716 28.72 236.326 33.6693 233.425 37.936C230.524 42.2027 229.841 44.2933 231.377 44.208C232.913 44.1227 234.492 42.7147 236.113 39.984C237.734 37.168 239.356 36.7413 240.977 38.704C242.598 40.5813 244.092 42.1173 245.457 43.312C246.908 44.5067 247.548 45.8293 247.377 47.28C247.206 48.6453 246.865 49.1573 246.353 48.816C245.841 48.3893 242.257 48.048 235.601 47.792C229.03 47.4507 224.678 48.816 222.545 51.888C220.412 54.8747 218.492 57.4773 216.785 59.696C215.164 61.9147 216.657 62.896 221.265 62.64C225.873 62.2987 228.689 61.0613 229.713 58.928C230.822 56.7093 233.041 57.136 236.369 60.208C239.782 63.1947 241.361 65.2853 241.105 66.48C240.934 67.5893 240.38 68.0587 239.441 67.888C238.502 67.632 237.862 75.44 237.521 91.312C237.18 107.184 237.222 115.291 237.649 115.632C238.076 116.059 237.564 116.229 236.113 116.144C234.748 116.144 233.681 116.485 232.913 117.168C232.23 117.851 231.633 118.064 231.121 117.808C230.609 117.552 229.884 117.467 228.945 117.552C228.006 117.637 227.75 116.059 228.177 112.816C228.689 109.573 225.958 108.208 219.985 108.72C214.012 109.232 210.769 110.683 210.257 113.072C209.83 115.461 209.702 116.997 209.873 117.68C210.044 118.363 209.702 118.619 208.849 118.448C207.996 118.363 207.27 118.448 206.673 118.704C206.161 118.96 205.308 119.344 204.113 119.856C203.004 120.368 202.193 120.368 201.681 119.856C201.169 119.344 200.828 111.877 200.657 97.456C200.572 83.0347 199.889 76.2933 198.609 77.232C197.329 78.1707 195.665 79.4507 193.617 81.072C191.569 82.608 190.118 82.9493 189.265 82.096C188.497 81.2427 189.222 80.0907 191.441 78.64C193.66 77.1893 195.836 75.5253 197.969 73.648C200.188 71.6853 201.212 68.6987 201.041 64.688C200.87 60.6773 202.065 59.1413 204.625 60.08C207.185 61.0187 209.233 60.2933 210.769 57.904C212.39 55.5147 213.841 53.168 215.121 50.864C216.486 48.4747 212.689 47.3227 203.729 47.408C194.769 47.408 190.204 47.024 190.033 46.256C189.862 45.4027 192.806 45.0187 198.865 45.104C204.924 45.1893 207.953 42.2027 207.953 36.144C207.953 30 205.393 26.7573 200.273 26.416C195.238 26.0747 192.678 25.52 192.593 24.752C192.508 23.984 195.068 23.5147 200.273 23.344C205.478 23.1733 208.294 19.5893 208.721 12.592C209.233 5.50933 211.665 2.30933 216.017 2.992C220.369 3.58933 222.46 4.57066 222.289 5.936C222.204 7.30133 221.436 7.81333 219.985 7.47199C218.62 7.04533 217.894 9.47733 217.809 14.768C217.809 19.9733 218.236 22.7467 219.089 23.088C220.028 23.4293 221.308 21.8507 222.929 18.352ZM281.681 11.44C285.18 15.1947 286.758 17.712 286.417 18.992C286.076 20.1867 285.393 20.7413 284.369 20.656C283.345 20.5707 281.297 23.6853 278.225 30C275.238 36.2293 272.55 41.4347 270.161 45.616C267.857 49.7973 269.734 53.936 275.793 58.032C281.852 62.0427 284.625 67.4187 284.113 74.16C283.686 80.9013 283.558 85.8933 283.729 89.136C283.985 92.3787 283.345 95.024 281.809 97.072C280.273 99.12 279.078 100.784 278.225 102.064C277.372 103.259 275.58 103.856 272.849 103.856C270.118 103.771 268.796 102.704 268.881 100.656C268.966 98.5227 268.668 96.9013 267.985 95.792C267.388 94.5973 266.961 93.9147 266.705 93.744C266.449 93.488 265.297 93.0613 263.249 92.464C261.286 91.8667 260.561 91.4827 261.073 91.312C261.67 91.056 263.078 90.7147 265.297 90.288C267.516 89.8613 269.094 89.8613 270.033 90.288C271.057 90.7147 271.74 90.8853 272.081 90.8C272.422 90.6293 272.806 90.0747 273.233 89.136C273.66 88.112 273.958 86.4907 274.129 84.272C274.385 81.968 274.47 78.3413 274.385 73.392C274.3 68.3573 272.678 63.6213 269.521 59.184C266.364 54.6613 265.34 49.6693 266.449 44.208C267.558 38.6613 268.753 32.56 270.033 25.904C271.398 19.248 269.905 15.8347 265.553 15.664C261.201 15.4933 258.812 32.176 258.385 65.712C258.044 99.1627 257.916 116.101 258.001 116.528C258.172 116.955 257.916 117.467 257.233 118.064C256.55 118.747 255.612 119.429 254.417 120.112C253.222 120.795 252.326 121.051 251.729 120.88C251.132 120.709 250.492 120.752 249.809 121.008C249.126 121.264 248.828 102.405 248.913 64.432C248.998 26.3733 250.833 8.19733 254.417 9.90399C258.001 11.6107 261.926 12.592 266.193 12.848C270.46 13.104 273.233 11.9947 274.513 9.52C275.793 6.95999 278.182 7.59999 281.681 11.44Z" fill="#FF7DFF"/>
</svg>
