<svg width="1271" height="436" viewBox="0 0 1271 436" fill="none" xmlns="http://www.w3.org/2000/svg">
    <path class="logo-color" d="M229.5 45.5C231.5 45.8333 232.5 46.3333 232.5 47C232.167 47 231.5 47.5 230.5 48.5V50C230.833 50 231.333 50.1667 232 50.5C232 49.8333 232.333 49.5 233 49.5H235.5C236.5 49.5 237.167 51.1667 237.5 54.5H240.5C241.167 54.1667 242.5 53.8333 244.5 53.5L246.5 54.5H256.5C256.5 55.1667 258.5 56.8333 262.5 59.5C262.5 60.1667 264.167 61.5 267.5 63.5C270.833 66.8333 273.167 68.8333 274.5 69.5C279.833 74.8333 283.667 79.8333 286 84.5C286.333 84.5 286.5 84.6667 286.5 85V87C285.833 89 285.5 90.1667 285.5 90.5C285.5 90.8333 286 91.6667 287 93L286.5 94.5V95.5C286.5 95.8333 287.833 96.1667 290.5 96.5V97.5L293 96.5C294 96.8333 295 97.6667 296 99C297 99 297.833 99.5 298.5 100.5H300.5V103.5C299.833 107.167 298.667 110.333 297 113C295 115 292.167 116.667 288.5 118C287.833 118 287.5 118.333 287.5 119H284.5C281.167 120 276.167 121.167 269.5 122.5H266L253 127C250.667 128.333 247.667 129.667 244 131C242 133 235.833 136.167 225.5 140.5C218.833 142.5 209.833 147.833 198.5 156.5C193.833 158.833 190.667 160.333 189 161V161.5H185.5L184.5 162.5H183.5C180.5 162.5 177.667 160.833 175 157.5C171.333 152.833 168.833 150.5 167.5 150.5C166.833 148.833 165.167 148 162.5 148C162.5 147.667 162.333 147.5 162 147.5H159.5V146.5H157.5L156 147.5H153.5C153.5 146.833 150.333 144.5 144 140.5C144 139.833 140.333 136.667 133 131C128.333 126 125.833 123 125.5 122C124.5 122 122.333 119.5 119 114.5C118.333 114.5 116 111.833 112 106.5C108.667 102.5 104.167 97.8333 98.5 92.5C98.5 92.8333 98.3333 93 98 93C93.6667 89 91.5 83.6667 91.5 77C90.8333 77 90.3333 75.5 90 72.5C89.6667 72.5 89.5 72.3333 89.5 72V69.5C89.8333 68.8333 90.3333 67 91 64C91 62.3333 92.5 60.3333 95.5 58L99 57C99.3333 57.3333 99.6667 57.5 100 57.5C100 57.1667 100.167 57 100.5 57L101 58V58.5L100 60V62.5C101 64.5 102.333 65.5 104 65.5H104.5L106 64.5L107 65.5H109C109.667 64.8333 112.167 64.1667 116.5 63.5H122.5C127.5 62.5 132.667 61.5 138 60.5L139 59.5L141 60H141.5L147 58H152L153.5 57.5H157.5L159.5 56C160.167 56.3333 160.833 56.5 161.5 56.5C161.5 55.8333 161.833 55.5 162.5 55.5H165V54.5H167C170.333 52.8333 178.667 50.8333 192 48.5H197L198.5 47.5H208C208.333 47.5 209.5 47.3333 211.5 47H219C219 47 220.167 46.6667 222.5 46H227.5C228.167 46 228.833 45.8333 229.5 45.5ZM270 154.5H271C271.333 154.5 271.667 154.833 272 155.5L271.5 157L273 159V160L272 161.5V163L273 164.5L272 166L273.5 166.5C273.5 166.167 273.833 166 274.5 166H275C275.667 166.333 277.5 166.667 280.5 167L281.5 166.5C282.167 166.833 282.5 167 282.5 167L284 164.5L285 165C286 164.333 286.833 164 287.5 164H288L289.5 165C289.5 164.667 290.667 164 293 163C295.333 164.333 297.5 165.833 299.5 167.5C307.5 173.833 312.667 178.5 315 181.5C317.667 184.5 319.5 187.333 320.5 190V192L320 193V196.5L321.5 200V201C320.167 201 319.333 201.667 319 203V204C319 204.333 320.667 205 324 206C324 207 324.333 207.833 325 208.5C327.667 208.167 329.333 207.833 330 207.5H333V208.5C332.333 209.167 331.833 211.167 331.5 214.5C329.167 217.5 327.333 219 326 219C326 219 325.833 219 325.5 219C325.5 219.333 322.5 220 316.5 221C311.167 222 308 222.833 307 223.5C306.333 223.167 305.667 223 305 223C304.333 224 301.667 225.167 297 226.5C297 226.167 296.833 226 296.5 226C296.5 226.333 295 226.833 292 227.5L291 227C288.333 228 286.5 229 285.5 230H285L284 229.5C284 229.833 282.833 230.333 280.5 231L280 230C285 227.667 288.167 226 289.5 225H292C292 224 293.333 223 296 222C296 222.333 296.167 222.5 296.5 222.5C296.5 221.5 298.167 220.333 301.5 219C302.167 219 302.667 219 303 219C303 218.667 303.833 218 305.5 217V216.5C305.167 216.5 304.833 216.333 304.5 216C304.5 216.667 304.167 217 303.5 217H301L299.5 216H295.5C290.167 216.667 286.333 217.5 284 218.5C278.333 220.5 270.333 224.167 260 229.5C260 229.833 258.833 230.333 256.5 231V232H254.5C251.167 234 249.5 235.167 249.5 235.5H247.5C245.5 237.5 242.667 239.333 239 241C238.333 241.667 237.5 243.833 236.5 247.5C234.833 252.167 229.167 259.167 219.5 268.5C219.167 268.5 216.167 270.667 210.5 275C209.833 275 208.167 276 205.5 278C203.5 278.333 201.833 279.5 200.5 281.5L201.5 282.5V283.5C201.5 283.833 199.833 285.5 196.5 288.5V289L198.5 288.5H201.5L203 287.5H204L205 288.5H212.5C214.833 289.167 216 289.5 216 289.5H229.5C234.833 290.833 238.333 291.5 240 291.5C241 292.5 242.833 293.333 245.5 294V293.5L241.5 287.5C241.5 286.5 239.5 284.333 235.5 281C235.167 279.333 234.667 278.167 234 277.5V276.5C234 276.167 234.667 275.667 236 275C235.667 274.333 235.5 273.833 235.5 273.5H234L231.5 274L230.5 272.5C231.833 271.5 232.833 271 233.5 271V271.5C236.833 270.833 238.5 270.333 238.5 270C238.5 269.667 237.667 269.167 236 268.5C236 267.5 234.5 266.333 231.5 265V264.5C232.167 264.5 232.5 264.167 232.5 263.5V261.5H232C231.333 261.5 229.5 262.833 226.5 265.5V264.5C231.5 259.167 236.167 256.333 240.5 256C240.5 256 240.667 256 241 256H252C256.333 257 260.333 258.667 264 261C270 263 275 264 279 264C279 264.333 280.667 265.5 284 267.5C287.667 270.5 292.167 274.833 297.5 280.5C298.5 280.5 301 282.833 305 287.5C306.667 287.5 309.833 290.833 314.5 297.5C315.167 297.5 316 298.667 317 301C318.667 302 319.5 303.333 319.5 305C319.833 305 320.5 306.333 321.5 309C326.833 315 330.667 318.833 333 320.5V329.5L331 336C327.333 342 320.667 348.5 311 355.5C305.667 358.5 300.833 360.667 296.5 362V362.5H294C290.667 364.5 287.833 365.5 285.5 365.5L284.5 364.5C285.167 364.5 286.667 363.167 289 360.5C289.667 360.5 293.5 358.167 300.5 353.5C308.5 349.167 312.5 345.333 312.5 342L314.5 337.5V336C313.833 334.333 312.833 333 311.5 332C300.833 344 294 350 291 350C291 351 287.5 353.333 280.5 357C269.167 363.333 261.5 367.833 257.5 370.5C253.167 373.167 248.667 375.5 244 377.5C243.667 377.5 242.5 377.833 240.5 378.5V378C240.5 377 240.833 376.167 241.5 375.5C239.5 375.5 237.833 376.5 236.5 378.5H236V377C236.667 375.667 237.833 374.833 239.5 374.5L241.5 372H242C242 372.667 241.833 373.5 241.5 374.5C242.5 374.5 243.167 372.667 243.5 369C245.167 368.333 246 366.667 246 364C247 362.667 251 355.667 258 343V342C249.667 342.667 244.167 343.333 241.5 344H238C237.333 344.667 233.167 345.5 225.5 346.5C225.5 346.833 223.333 347.667 219 349C218.667 348.667 218.333 348.5 218 348.5C218 348.833 215 349.667 209 351H207.5V352H204C193.333 355.333 187.167 357 185.5 357C183.5 358.333 178.667 360.167 171 362.5C171 362.833 169 363.833 165 365.5L116 390.5H111C109 390.5 107.833 389.333 107.5 387C107.167 387 107 387 107 387C108 385 109.167 383.833 110.5 383.5L110 383V382.5L111 380L109 378.5H107L99.5 381C98.8333 381 98.3333 380.833 98 380.5C97.3333 380.833 96.6667 381 96 381L95 380H90C90 379.667 89 378.833 87 377.5C82 372.5 78.6667 368.333 77 365C70.3333 358 67 353.833 67 352.5L66.5 351.5V349C67.8333 349 68.5 348.5 68.5 347.5V347H67L66 348C65.3333 347.667 64.6667 347.5 64 347.5C64 348.167 63.6667 348.5 63 348.5H59C59 348.167 58.8333 347.667 58.5 347L61 342.5C61 341.167 59.6667 340.333 57 340V334C58.3333 331 67.1667 325.833 83.5 318.5C85.1667 316.833 88 315.333 92 314L101.5 309V308.5H103.5C113.167 304.833 118 301.833 118 299.5C123.667 294.167 134.833 282.833 151.5 265.5C151.5 265.167 152.833 263.833 155.5 261.5L161.5 255.5L162.5 256C165.833 251.667 168.833 248.833 171.5 247.5L176 242.5V241.5H175C170.667 242.833 163.667 246.333 154 252C147.333 255.333 141.833 258.667 137.5 262C128.167 267.667 119.333 274.167 111 281.5L102.5 289.5C95.5 295.5 89.5 298.833 84.5 299.5C84.5 299.833 84.3333 300 84 300H82C80 299.333 78.1667 297.5 76.5 294.5C75.8333 293.167 74.8333 292.167 73.5 291.5C73.5 289.833 72.1667 288.333 69.5 287C69.5 286.333 67.5 285.833 63.5 285.5C63.5 285.167 63.3333 285 63 285H54.5C54.5 284.333 52.8333 283 49.5 281C39.1667 272 32.6667 265 30 260C27.6667 257.667 25.8333 255.333 24.5 253C23.1667 253 22 252 21 250C17 244.667 14.5 242 13.5 242L6.5 236.5C4.16667 234.833 2.16667 229.667 0.5 221V215L2.5 208.5C8.16667 202.167 12.6667 198.667 16 198L16.5 199V200L14 203L14.5 205C14.5 205.667 14.3333 206.333 14 207C14.3333 207.333 14.5 207.833 14.5 208.5L13.5 210C13.8333 210.667 14.1667 211 14.5 211C15.1667 211 16 209.5 17 206.5H19C19 206.833 19.8333 208.333 21.5 211L23 210C23.3333 210 23.5 210.167 23.5 210.5L25.5 210H28.5C29.5 209.333 30.6667 208.833 32 208.5L32.5 209L38 205.5C39.3333 206.833 42.1667 207.5 46.5 207.5V208L47 207.5H47.5L48.5 208C48.5 207.667 50.1667 207.167 53.5 206.5H57C57.6667 205.833 60.8333 205 66.5 204C66.5 204 66.6667 204 67 204C67.6667 204 68.3333 204 69 204C69.3333 204 69.8333 204 70.5 204H71.5C72.5 204.667 73.8333 205 75.5 205C75.5 204.667 76 204.333 77 204H81C81.3333 204 81.5 204.5 81.5 205.5C82.1667 205.167 84.8333 204.5 89.5 203.5C89.5 203.167 89.6667 203 90 203H90.5C91.1667 203 91.5 203.333 91.5 204C91.5 204.667 91.1667 205 90.5 205C90.5 204.667 90.3333 204.5 90 204.5L89.5 205.5V206.5C89.8333 206.5 90.3333 206.667 91 207L92.5 206C93.1667 206.333 93.8333 206.5 94.5 206.5C94.5 205.833 97 205 102 204C102 204 102.167 204 102.5 204H105C105 203 107.833 202 113.5 201C113.833 200.667 118.5 199.5 127.5 197.5C128.167 196.833 130.667 196.333 135 196C135.333 195.333 136.833 194.5 139.5 193.5C139.833 193.833 140.333 194 141 194C141 193.333 144.667 192.5 152 191.5C152.333 191.5 152.833 191.167 153.5 190.5C154.167 190.5 154.833 190.667 155.5 191C156.833 190 158 189.5 159 189.5H160.5V189H164C164.333 189 165.5 188.667 167.5 188H171.5L174.5 186C174.833 186 175 186.167 175 186.5C181.333 185.5 186 184.5 189 183.5H193L194 182.5H196.5V181.5H197.5C197.833 181.5 198 181.667 198 182C201 181.333 202.5 180.833 202.5 180.5L204.5 181L210 179.5C210.333 179.833 210.833 180 211.5 180C211.833 179.333 212 178.667 212 178H212.5L214 179H215.5L216.5 178H221L222.5 177.5H226C227 177.5 228.167 176.833 229.5 175.5H230.5L231.5 176.5L234 174.5H239.5L244.5 173H249C252 172.333 254 171.667 255 171H259L260 171.5C260 170.5 260.833 170 262.5 170C262.5 169.333 263 168.167 264 166.5C265.667 164.167 267.333 160.333 269 155L270 154.5ZM312.5 211.5V212.5C312.5 212.833 313.167 213.5 314.5 214.5H315.5C316.167 214.5 316.5 214.167 316.5 213.5C316.5 212.833 315.167 212.167 312.5 211.5ZM152 239H149.5C147.167 240.667 144.667 241.833 142 242.5C142 243.5 141.333 244 140 244V244.5L140.5 245.5L140 246C139.333 246 139 245.667 139 245H138C138 245.667 137.667 246 137 246L135 245C135 245.667 134 246.833 132 248.5V249.5C133.333 248.5 134.667 248 136 248H136.5V248.5C136.5 248.833 134 250.333 129 253C126.667 255.333 124.667 256.5 123 256.5C122.667 256.5 122.167 257.167 121.5 258.5C121.5 259.167 121.667 259.5 122 259.5C123 259.5 126.5 257.5 132.5 253.5C150.167 243.833 159.5 239 160.5 239C164.167 237 167.5 235.667 170.5 235C172.5 233.667 179.167 231.167 190.5 227.5L193 224C193 223.333 192.667 223 192 223L187 225C187 225.333 185.667 225.833 183 226.5L167.5 232.5C161.5 234.5 156.333 236.5 152 238.5V239ZM279 230V231C279 231.667 278.833 232 278.5 232H276.5V231C277.167 231 278 230.667 279 230ZM143.5 243.5H144.5V244H143.5V243.5ZM177 286C177 286.333 177.333 286.5 178 286.5C178.667 286.5 179.333 286.333 180 286L181 286.5C186.667 285.5 189.5 284.167 189.5 282.5H190.5H191C191 281.167 193.333 279.5 198 277.5C198 277.167 201 275 207 271C212.333 268 215.833 265.333 217.5 263C219.167 263 223 259 229 251C229.333 249.667 230.167 248.333 231.5 247L231 246C228.333 247.667 224.333 250.333 219 254L210 260L197.5 269C195.167 271 193.5 272.5 192.5 273.5C192.5 273.833 191.333 274.5 189 275.5L178 285C177.333 285 177 285.333 177 286ZM130 249V250H131V249H130ZM118.5 255.5V256H119.5V255.5H118.5ZM268.5 315.5C267.5 320.167 266 322.5 264 322.5L263.5 323.5V324.5L264 326V326.5C264 327.167 261.5 328.5 256.5 330.5V331C256.5 331.333 256.667 331.5 257 331.5H260C260.667 331.167 262 330.833 264 330.5C266 325.167 267.833 320.5 269.5 316.5V315.5H268.5ZM218.5 338.5C218.833 338.5 219.167 338.167 219.5 337.5H219C218.667 337.5 218.5 337.833 218.5 338.5ZM207 340V340.5C207 341.167 207.333 341.5 208 341.5C209.667 340.5 211 340 212 340V339.5C212 338.833 211.833 338.5 211.5 338.5H210.5C209.167 339.5 208 340 207 340ZM203.5 341V342H204C204.667 342 205.167 341.667 205.5 341L204.5 340.5C204.167 340.833 203.833 341 203.5 341ZM199.5 341.5C199.5 341.833 199.333 342.167 199 342.5L201 343C201.667 342.667 202.167 342.5 202.5 342.5V342C202.5 341.667 202.167 341.5 201.5 341.5H199.5ZM155 356.5C155 355.833 154.667 355.5 154 355.5C153 356.5 151 357.5 148 358.5C138 362.833 132.333 365.833 131 367.5C130.333 370.5 128.833 372.5 126.5 373.5L126 376H126.5C127.167 375 134.333 371.167 148 364.5C148 364.167 149.833 363.167 153.5 361.5C158.5 358.833 165.167 355.833 173.5 352.5C173.5 352.833 173.667 353 174 353C174 351.667 178 349.833 186 347.5C186 347.167 189 346.333 195 345L196.5 343V342.5C188.5 344.833 182 346.833 177 348.5L158.5 354.5C156.833 354.5 155.667 355.167 155 356.5ZM197 342.5V344C197.667 344 198 343.667 198 343V342.5H197ZM661.92 51H662.92C663.587 51 664.087 51.1667 664.42 51.5C665.087 51.1667 665.587 51 665.92 51C666.253 51.3333 667.753 52 670.42 53C670.42 53.6667 672.087 56 675.42 60H678.42L679.42 59H680.42L681.92 60H686.92L688.42 59H690.92C693.587 59.3333 704.087 68.5 722.42 86.5C723.753 89.1667 725.587 91.8333 727.92 94.5C727.92 98.5 731.753 103.333 739.42 109C739.42 109.667 740.587 110.833 742.92 112.5V117.5L740.42 124C736.087 129.333 731.92 132 727.92 132C727.92 132.667 724.253 133.667 716.92 135C716.92 135.333 716.753 135.5 716.42 135.5H712.92C712.253 135.5 711.92 135.333 711.92 135C713.253 133 716.92 130.333 722.92 127L723.42 126V125C723.42 124.667 721.92 123.833 718.92 122.5H717.92L697.92 133.5C694.92 135.5 690.587 137.667 684.92 140H682.42C681.753 140 681.253 139.5 680.92 138.5C682.587 136.833 683.42 135.333 683.42 134C683.42 132.667 683.753 131.667 684.42 131V130.5C684.42 129.833 683.92 129.167 682.92 128.5H681.92L667.42 134C654.087 139.667 645.753 143.667 642.42 146C640.753 146.333 639.92 146.833 639.92 147.5C639.92 148.5 642.42 151.5 647.42 156.5C647.42 157.833 647.753 158.5 648.42 158.5H649.42C660.087 155.167 670.087 152.333 679.42 150L686.92 148L687.42 148.5H687.92V148H686.92L687.42 147C688.42 147.667 689.42 148 690.42 148H710.42L711.92 149H715.92C716.92 149.333 719.753 150 724.42 151C728.087 152 730.253 152.833 730.92 153.5C730.92 153.833 729.92 155.167 727.92 157.5H729.42L730.92 157H732.42C736.753 159.333 744.253 166.167 754.92 177.5C759.587 184.167 763.087 189.667 765.42 194L770.92 206.5C773.253 211.833 775.087 218.167 776.42 225.5C776.753 225.5 776.92 225.667 776.92 226V230L777.92 231.5V236L778.92 237.5V246L779.92 247V280.5C779.92 281.167 779.753 281.833 779.42 282.5C779.753 283.167 779.92 283.667 779.92 284C779.253 284 778.92 284.167 778.92 284.5V310.5L777.92 312V328.5L776.92 329.5V340L776.42 341V348.5L775.42 350V355.5L774.42 357V362L770.42 373.5C768.087 378.5 764.587 382.167 759.92 384.5C758.92 384.5 758.087 384.667 757.42 385H750.92C750.253 384.667 748.753 384.333 746.42 384C744.087 380.667 742.087 379 740.42 379V378H746.42C748.42 377.667 750.087 375.667 751.42 372V370.5C751.42 369.833 750.587 369.167 748.92 368.5C745.92 370.167 743.587 371.167 741.92 371.5C741.92 372.167 740.253 373.5 736.92 375.5H731.42C722.753 372.5 717.587 370.333 715.92 369C710.92 365.667 705.253 359.833 698.92 351.5C694.253 346.5 691.753 344 691.42 344C687.087 341 684.92 337.167 684.92 332.5C684.587 332.5 684.42 332.333 684.42 332V319.5C685.087 318.833 685.92 315.5 686.92 309.5C688.253 308.167 689.42 304 690.42 297C691.087 297 691.753 295.833 692.42 293.5V292C692.42 291.333 692.087 291 691.42 291C688.42 293.333 686.42 294.5 685.42 294.5C684.087 295.5 682.587 296.167 680.92 296.5C680.92 296.833 680.253 297.667 678.92 299H676.92L675.42 298H674.92C673.92 298.667 673.42 299 673.42 299C669.753 297 665.587 295.667 660.92 295C659.92 294.333 657.253 292 652.92 288V304.5L651.92 306L652.92 307C652.92 307.333 652.753 307.5 652.42 307.5L652.92 310V320.5C652.92 321.167 652.753 321.5 652.42 321.5L652.92 324V340C652.92 340.667 652.753 341.167 652.42 341.5C652.753 342.167 652.92 342.833 652.92 343.5L651.92 344.5V349.5C650.92 351.5 649.253 353.5 646.92 355.5L646.42 354.5V352L647.42 351V349.5H646.92L645.92 350L645.42 349V348L646.42 346.5V342.5L647.42 341V320.5H648.42C648.42 321.167 648.753 321.5 649.42 321.5C649.753 321.5 649.92 321.333 649.92 321V319C649.92 319 649.087 318.167 647.42 316.5V314.5C647.42 314.167 647.753 314 648.42 314C648.42 314.333 648.753 314.5 649.42 314.5C649.753 314.5 649.92 314.333 649.92 314V312L649.42 310.5L649.92 309.5V308.5L648.42 306.5C649.42 305.833 649.92 305.333 649.92 305V292L650.92 291V284.5L644.42 276.5H643.92V295L642.92 296V297L643.92 298.5V301L642.92 302.5V313L643.92 314L642.92 315.5V358.5C641.92 362.167 640.42 364.333 638.42 365C637.753 365 637.087 365.333 636.42 366H634.42C634.087 366 633.42 365 632.42 363V362L633.42 360.5V356C632.753 355.667 632.253 354 631.92 351L630.92 350.5H630.42C630.42 351.833 629.92 352.833 628.92 353.5C628.92 352.833 628.587 352.5 627.92 352.5H626.42L624.42 355.5C622.087 355.5 620.253 356 618.92 357H616.92C606.92 347.667 601.753 342 601.42 340C596.087 335 593.42 331 593.42 328C593.42 327.333 593.253 326.5 592.92 325.5V321.5L593.42 320V315L595.42 312V309H594.92C590.92 311 588.753 312.667 588.42 314V319.5L587.42 321V321.5L588.42 323V323.5C588.42 324.167 588.087 324.5 587.42 324.5C584.42 321.167 582.92 319.167 582.92 318.5V316H582.42C581.087 316.667 579.587 318.333 577.92 321L575.42 322.5H572.92L571.42 321.5H566.92C566.253 321.167 563.587 320.5 558.92 319.5C555.253 316.5 550.42 310.667 544.42 302V300C545.087 298.667 545.42 298 545.42 298L544.92 295.5V293C548.92 288.667 551.42 284.5 552.42 280.5C553.087 280.5 556.587 275.833 562.92 266.5C567.92 260.167 570.42 256.5 570.42 255.5C566.087 252.167 563.92 249.5 563.92 247.5C562.587 246.833 561.92 246.333 561.92 246V244.5L563.42 240.5V239.5C563.42 239.167 563.253 239 562.92 239C562.92 239.667 562.087 240.5 560.42 241.5H559.42L563.42 238C563.753 238.333 564.087 238.5 564.42 238.5V228.5C562.42 229.833 559.587 232.5 555.92 236.5C549.253 243.5 544.253 250.167 540.92 256.5C533.587 268.167 529.92 276.167 529.92 280.5C529.587 280.5 529.42 280.667 529.42 281V286L528.42 287.5V307.5L529.42 309V315.5C529.753 316.167 530.42 318.833 531.42 323.5C532.753 330.833 534.42 336.5 536.42 340.5V342.5L533.42 352L527.92 355.5H524.42L520.92 352H520.42C519.753 356.333 518.253 358.5 515.92 358.5C515.92 358.5 514.587 359.167 511.92 360.5H510.92C508.92 357.833 507.587 356.5 506.92 356.5C504.92 354.5 503.253 352.167 501.92 349.5L499.92 348L498.92 349H495.92C495.253 348.333 494.92 348 494.92 348L492.92 350H491.92C487.92 348 480.587 341.333 469.92 330C469.92 329 463.753 322.333 451.42 310C445.753 303 442.92 295.833 442.92 288.5C442.253 288.5 441.92 288.333 441.92 288V274.5L442.92 273V269.5L444.92 262.5C448.587 250.5 457.087 235.833 470.42 218.5L470.92 219.5C464.253 229.5 459.253 238.667 455.92 247C454.253 254 453.087 258 452.42 259V263L450.92 267V267.5H451.42C451.753 267.5 452.92 264.333 454.92 258C455.587 257.667 457.42 254.167 460.42 247.5L464.92 239.5C465.253 239.5 468.42 234 474.42 223L484.92 207H485.42L485.92 208C483.92 210 481.587 214.333 478.92 221C478.253 221 476.92 223.5 474.92 228.5C472.92 232.5 470.92 238.5 468.92 246.5L467.42 249.5V251.5H468.42C468.42 250.167 469.587 247.5 471.92 243.5C473.587 241.167 476.42 236 480.42 228C481.42 227.333 482.42 225.667 483.42 223C484.42 222.667 487.753 216.667 493.42 205C493.753 205 496.087 201.5 500.42 194.5L506.42 189.5H508.42C509.087 189.5 509.753 189.667 510.42 190C510.753 189.667 511.087 189.5 511.42 189.5C511.42 189.833 512.753 190.333 515.42 191C515.42 191.667 517.253 192.167 520.92 192.5C528.253 197.5 531.92 201.5 531.92 204.5C531.92 205.833 532.253 206.833 532.92 207.5V209.5L531.92 210.5V215C531.92 215.667 532.253 216 532.92 216C532.92 216 533.253 215.667 533.92 215H534.92L537.42 215.5C543.087 209.833 550.253 204.333 558.92 199C573.253 189.333 589.587 181 607.92 174C607.92 173.333 608.087 172.667 608.42 172V166L609.42 164.5V163.5H608.92C597.253 169.833 590.42 173 588.42 173C588.087 173.667 584.753 174.667 578.42 176H576.42C575.753 175.667 574.253 175.333 571.92 175L569.42 171.5C567.42 168.167 564.253 165.333 559.92 163C558.92 163 557.253 162.333 554.92 161H553.92L552.42 162H549.92C545.92 159.667 541.92 156.667 537.92 153C531.253 147.333 525.253 140.667 519.92 133C510.587 121.667 503.42 114.667 498.42 112C498.42 111.333 497.587 109.667 495.92 107C495.253 103 494.253 99.5 492.92 96.5V92C493.587 91.6667 494.087 89.8333 494.42 86.5C495.753 83.8333 497.753 81.3333 500.42 79C501.087 79 502.253 78.5 503.92 77.5H506.42V79L503.92 82C504.253 86 505.087 88 506.42 88H516.92L518.42 87H524.92L529.92 85.5H537.42C540.087 84.1667 546.253 82.6667 555.92 81C556.253 80.3333 561.753 78.8333 572.42 76.5C573.087 75.8333 576.42 75 582.42 74C582.42 73.3333 584.087 72.8333 587.42 72.5C591.42 71.1667 598.753 69.1667 609.42 66.5C611.753 65.5 615.087 64.6667 619.42 64L644.92 56.5C648.253 55.1667 651.753 54 655.42 53L661.92 51ZM664.42 122V122.5H664.92C665.587 121.833 666.42 121.5 667.42 121.5V120.5H665.92C665.587 120.5 665.087 121 664.42 122ZM661.92 122.5V123.5H662.92V122.5H661.92ZM659.42 123.5V124H660.92V123.5H659.42ZM656.92 125H658.42V124H657.92C657.253 124.333 656.92 124.667 656.92 125ZM654.92 125V126H656.92V125H654.92ZM648.92 129V129.5H649.42C650.087 128.833 651.087 128.5 652.42 128.5V128C652.42 127.667 651.92 127.333 650.92 127C650.587 127 649.92 127.667 648.92 129ZM633.92 136V136.5H634.42C634.753 136.5 634.92 136.167 634.92 135.5V135H634.42C634.087 135.333 633.92 135.667 633.92 136ZM679.42 139H680.92V139.5C680.92 140.167 680.42 140.667 679.42 141C678.753 141 678.42 140.667 678.42 140L679.42 139ZM733.42 152.5C733.753 152.5 733.92 152.667 733.92 153L735.92 152.5H737.42C738.087 153.167 738.92 153.5 739.92 153.5V154H733.92C733.253 154 732.92 153.833 732.92 153.5L733.42 152.5ZM610.42 163V168L609.42 169V173C614.753 172 617.42 170.667 617.42 169C617.42 168 617.753 167.167 618.42 166.5V160.5C618.42 159.833 618.087 159.5 617.42 159.5H616.42C612.42 161.5 610.42 162.667 610.42 163ZM707.92 179.5H694.42L692.92 180.5H680.92L679.42 181.5H673.92L672.42 182.5H667.92L666.42 183.5H662.42C661.753 183.833 657.753 184.667 650.42 186C650.087 187.667 649.753 188.5 649.42 188.5L649.92 191V193.5L649.42 194.5V198.5L649.92 199.5L649.42 201V209.5L648.42 210.5V220L647.42 221V232L646.42 233.5V240C646.42 240.667 646.253 241.333 645.92 242C646.253 242.333 646.42 242.833 646.42 243.5L645.42 245V255C645.087 255.667 644.753 257.667 644.42 261L645.42 262C646.087 262 646.753 260.667 647.42 258C648.087 258 650.087 254.833 653.42 248.5V241L654.42 239.5V228.5C652.753 227.167 651.92 226.333 651.92 226V222.5L653.42 217.5V216C653.087 215.333 652.92 214.833 652.92 214.5V207.5C654.92 202.5 656.753 200 658.42 200V199.5L656.92 198C659.587 197 660.92 195.333 660.92 193H661.42C664.087 194.667 665.92 196.167 666.92 197.5L669.92 194.5L673.92 196.5H675.42L676.92 195.5H677.92C680.587 196.833 686.087 201.667 694.42 210C697.087 215.333 698.753 218.333 699.42 219V221C699.42 221.333 699.253 221.833 698.92 222.5C699.587 225.833 700.087 227.667 700.42 228V228.5C700.42 229.5 698.92 231.5 695.92 234.5C693.587 241.167 688.087 251.167 679.42 264.5V268C679.42 268.333 680.253 268.833 681.92 269.5C683.253 268.5 685.253 267.833 687.92 267.5C689.253 267.5 692.253 263.167 696.92 254.5C701.253 246.833 704.087 240.667 705.42 236V233.5H705.92C706.587 233.5 707.087 234 707.42 235V241H708.42C714.087 217.333 716.92 204.833 716.92 203.5C717.587 201.833 718.42 198.5 719.42 193.5C719.753 193.5 719.92 193.333 719.92 193V189L720.42 187.5L719.92 186.5V183.5L720.42 182.5V181.5C720.42 181.167 719.92 180.5 718.92 179.5H710.42L708.92 179L707.92 179.5ZM725.92 189.5V195H724.92V189H723.92V192.5L723.42 194V198L722.42 199V204C721.753 204.667 721.087 207.833 720.42 213.5C720.087 213.5 719.92 213.667 719.92 214V218C719.253 218.667 718.587 221.5 717.92 226.5C717.253 226.5 716.92 226.833 716.92 227.5V230.5H717.92V228C718.92 225 719.92 220.5 720.92 214.5C722.253 209.167 723.087 206.5 723.42 206.5V202C723.753 201.333 724.087 199.833 724.42 197.5H724.92C725.587 197.5 725.92 197.833 725.92 198.5V199.5L724.92 201V206L723.92 207V211L723.42 212.5V216.5L722.42 217.5V221.5L721.42 223V227C721.087 227.333 720.753 229 720.42 232C720.087 232 719.92 232.167 719.92 232.5V235.5C720.253 236.167 720.42 237.167 720.42 238.5H721.42V236C721.42 235.333 722.253 234.5 723.92 233.5C723.253 236.5 722.753 238.333 722.42 239V243H723.42V240C723.753 239.333 724.587 235.5 725.92 228.5C726.587 226.833 727.253 223.333 727.92 218C728.253 218 728.42 217.833 728.42 217.5V213L729.42 211.5V207.5L730.42 206V196L731.42 194.5L730.42 193.5V188.5C730.42 187.833 730.087 187.5 729.42 187.5H727.92C727.253 187.5 726.587 188.167 725.92 189.5ZM604.92 203.5V208.5L604.42 209.5V214.5L603.42 216V221L602.42 222C606.42 226.333 609.087 230 610.42 233H611.42V232.5L610.42 231.5L611.42 230V226L611.92 224.5V219L612.92 217.5V213L613.92 211.5V204L614.92 202.5V198.5C614.92 197.833 614.587 197.5 613.92 197.5L606.42 201L604.92 203.5ZM579.92 215V216H581.92L583.92 214C583.92 214.667 584.253 215 584.92 215H589.92L591.42 214C593.753 215.333 596.92 217.667 600.92 221C601.253 221 601.587 219.5 601.92 216.5C602.253 216.5 602.42 216.333 602.42 216V212C603.087 211.333 603.42 210.833 603.42 210.5V206L604.42 204.5V202C596.087 205.667 589.087 209.5 583.42 213.5C581.753 214.5 580.587 215 579.92 215ZM723.92 226H724.92V228C724.587 228.667 724.253 230.167 723.92 232.5H723.42C722.753 232.5 722.42 232.333 722.42 232C722.753 232 723.253 230 723.92 226ZM655.42 231.5V244.5H656.42C656.42 243.833 657.753 241.333 660.42 237C660.42 236.667 660.753 236.167 661.42 235.5V234.5C658.087 232.5 656.087 231.5 655.42 231.5ZM716.42 232V235H716.92V232H716.42ZM715.42 236.5V238.5H716.42V236.5H715.42ZM719.92 240V242H720.42V240H719.92ZM714.42 241V242H715.42V241H714.42ZM558.92 241.5H559.42V242C559.42 242.333 558.92 242.667 557.92 243H557.42C557.42 242.333 557.92 241.833 558.92 241.5ZM706.42 243V244.5H707.42V243H706.42ZM556.42 243H557.42V243.5H556.42V243ZM721.42 243.5V247H722.42V243.5H721.42ZM718.92 244.5V245.5H719.92V244.5H718.92ZM705.42 245.5C705.42 247.167 701.087 255.167 692.42 269.5C692.42 270.833 692.087 271.833 691.42 272.5V273C691.42 273.667 691.753 274 692.42 274H695.42L697.92 274.5C701.92 260.5 704.753 251.333 706.42 247V245.5H705.42ZM462.42 246.5V247H462.92V246.5H462.42ZM720.42 248V250V252C721.087 252 721.42 251.667 721.42 251V248H720.42ZM571.42 251V251.5H571.92C572.253 251.5 573.087 250.833 574.42 249.5V249H573.92C573.587 249 572.753 249.667 571.42 251ZM716.92 251.5V252.5H717.92V251.5H716.92ZM460.42 252.5V253.5H461.42V252.5H460.42ZM719.92 253.5V255H720.42V253.5H719.92ZM459.42 254.5V256H460.42V254.5H459.42ZM590.92 281V285L589.42 290V291.5H589.92C589.92 290.5 593.253 286.667 599.92 280C601.92 277.667 602.92 275 602.92 272C603.253 272 603.753 271.167 604.42 269.5V265.5C604.753 264.833 604.92 264.5 604.92 264.5V260.5L606.92 255.5V255H606.42C603.753 259 599.42 264.167 593.42 270.5C592.753 274.5 591.92 278 590.92 281ZM458.92 257C458.92 258 457.92 261 455.92 266V267.5H456.42C456.753 267.5 457.587 266.5 458.92 264.5V260.5L459.42 259V257H458.92ZM456.92 273V276.5H457.92V273H456.92ZM453.42 273.5C453.42 274.5 453.087 275.333 452.42 276L453.42 277L451.42 280.5V283C452.42 285.667 453.42 287 454.42 287V273.5H453.42ZM576.42 291L576.92 293V295L575.92 296V297C575.92 297.667 576.253 298 576.92 298H579.42C580.42 297 582.087 296.167 584.42 295.5C587.087 283.833 588.753 277.667 589.42 277V276.5H588.92C586.92 277.833 582.753 282.667 576.42 291ZM590.42 294.5L590.92 296.5V298.5H589.92V295.5H589.42C589.42 296.5 589.087 297.333 588.42 298V300H588.92C589.253 299.667 589.587 299.5 589.92 299.5C590.253 300.167 590.587 300.5 590.92 300.5H596.42C596.753 300.5 597.42 298 598.42 293C598.753 293 598.92 292.833 598.92 292.5V288.5L599.92 287.5V283C594.587 289 591.42 292.833 590.42 294.5ZM454.42 288V288.5H454.92V288H454.42ZM678.92 299.5C678.92 299.5 679.253 299.833 679.92 300.5H682.92L683.92 299.5H687.42C688.087 299.5 688.587 300 688.92 301L683.92 303H680.42C678.753 302 677.587 301.5 676.92 301.5V300.5C677.253 300.5 677.92 300.167 678.92 299.5ZM694.92 331V332H695.92V331H694.92ZM645.42 338H646.42V338.5H645.42V338ZM747.92 366.5C747.92 367.167 748.253 367.5 748.92 367.5H749.92L752.42 364V362H751.92C750.253 363.333 748.92 364.833 747.92 366.5ZM1086.34 0.5H1087.34C1088.67 1.5 1090.01 3.5 1091.34 6.5L1093.84 7.5H1095.84C1096.84 7.5 1097.34 6.5 1097.34 4.5H1098.34C1098.34 5.5 1098.67 6 1099.34 6H1099.84L1101.34 5L1102.84 6H1103.34L1104.84 5L1104.34 3V2.5H1104.84C1108.51 4.16667 1114.84 9.33333 1123.84 18C1127.17 20.3333 1130.34 25 1133.34 32C1137.34 35 1139.34 37.5 1139.34 39.5C1139.67 39.5 1140.17 40.8333 1140.84 43.5H1141.34V42.5H1142.34C1142.34 43.5 1143.17 44.5 1144.84 45.5H1148.34L1152.34 44H1155.34C1157.67 44.3333 1165.51 51 1178.84 64C1181.84 65 1185.34 69 1189.34 76C1191.67 77.6667 1192.84 79.6667 1192.84 82C1192.84 83.3333 1197.51 88.6667 1206.84 98C1206.84 99.6667 1207.17 100.5 1207.84 100.5L1208.84 99.5L1209.34 100.5V104.5L1205.84 114.5C1201.84 118.5 1196.17 122.333 1188.84 126C1179.17 132.333 1170.01 136.5 1161.34 138.5V139C1162.67 139 1163.67 139.333 1164.34 140H1169.34C1171.34 141.333 1174.51 142.667 1178.84 144C1179.17 144.667 1181.51 146.5 1185.84 149.5C1188.84 152.167 1191.17 155 1192.84 158V160L1189.84 165.5L1190.84 167L1189.34 169V170L1189.84 171.5C1189.84 171.833 1188.17 173 1184.84 175L1184.34 176H1190.84L1196.84 174C1197.17 174 1198.51 173.333 1200.84 172H1202.34C1203.01 172 1203.34 172.167 1203.34 172.5V174C1200.67 180 1197.17 183 1192.84 183C1192.84 183.667 1191.67 184.167 1189.34 184.5C1189.34 184.833 1189.17 185 1188.84 185H1184.84L1183.34 186H1178.34C1177.67 186.667 1177.34 187 1177.34 187H1173.34L1171.84 187.5H1167.84C1164.51 188.833 1156.01 191 1142.34 194L1132.84 197L1132.34 198L1148.84 204C1149.84 205 1154.34 206.5 1162.34 208.5C1164.34 208.833 1165.84 209.5 1166.84 210.5H1170.84L1172.34 211.5H1180.84L1181.84 212.5H1199.34L1203.34 214H1204.34L1205.34 213C1206.01 213 1206.51 213.5 1206.84 214.5V217C1200.17 226 1196.01 232.333 1194.34 236C1194.01 236 1192.34 237.833 1189.34 241.5V242.5C1189.67 243.5 1190.34 244 1191.34 244V245C1188.67 246.333 1185.51 247.333 1181.84 248V249L1182.84 250.5H1182.34L1181.34 249.5C1180.67 249.5 1180.34 249.833 1180.34 250.5C1180.34 250.833 1180.67 251 1181.34 251H1181.84C1186.17 250 1189.67 248.667 1192.34 247C1195.34 247 1198.67 244.333 1202.34 239C1204.34 234 1206.01 231.333 1207.34 231L1207.84 232V233L1206.84 234.5V238.5C1205.51 243.167 1202.84 247.833 1198.84 252.5C1194.84 256.167 1191.01 258.167 1187.34 258.5C1187.34 258.833 1187.17 259 1186.84 259H1184.34C1180.67 258 1177.84 256.667 1175.84 255C1166.17 250.667 1161.01 248.5 1160.34 248.5C1154.34 246.833 1143.51 238.167 1127.84 222.5H1127.34V228L1126.34 229V244L1127.34 245.5V250L1126.34 251V252C1126.67 252.667 1127.01 253 1127.34 253L1130.84 250.5V244C1130.84 243.333 1131.17 243 1131.84 243C1133.84 245.667 1135.01 247 1135.34 247H1136.84L1138.34 246H1143.34L1144.34 245H1146.34C1155.01 252.333 1159.51 257.5 1159.84 260.5L1162.84 267.5V271.5C1162.84 272.167 1163.01 272.5 1163.34 272.5H1165.34L1166.84 271.5H1167.34C1169.67 272.167 1170.84 273.333 1170.84 275C1171.51 277.667 1172.34 279.5 1173.34 280.5H1174.84C1178.17 279.167 1183.84 277.833 1191.84 276.5C1194.84 275.5 1199.01 274.5 1204.34 273.5C1204.34 273.167 1204.34 273 1204.34 273H1208.34C1208.67 273 1210.17 271 1212.84 267L1215.34 265.5H1215.84C1216.51 265.5 1217.51 267.5 1218.84 271.5C1219.51 271.5 1220.01 271.667 1220.34 272C1221.34 272 1222.34 271 1223.34 269H1223.84C1224.84 269.667 1226.51 270.5 1228.84 271.5H1229.84L1231.34 269.5H1231.84C1234.84 270.5 1242.34 277.167 1254.34 289.5C1255.67 291.167 1256.34 292.667 1256.34 294C1256.67 294 1258.34 296.333 1261.34 301C1260.34 301 1259.67 302.333 1259.34 305L1259.84 307V313C1259.51 313.333 1257.84 314.167 1254.84 315.5C1251.51 322.167 1247.67 327.167 1243.34 330.5C1231.67 338.833 1218.67 345.667 1204.34 351C1202.67 352.667 1198.51 354.167 1191.84 355.5C1191.84 355.833 1191.67 356 1191.34 356H1189.84L1188.34 354.5C1188.34 355.5 1187.84 356 1186.84 356L1186.34 355C1186.67 354.333 1188.17 353.667 1190.84 353C1190.84 352 1191.84 350.333 1193.84 348L1193.34 346C1193.67 345.333 1195.17 343 1197.84 339C1204.17 329 1209.84 319.167 1214.84 309.5V308.5C1214.84 307.833 1214.51 307.5 1213.84 307.5H1211.84C1211.17 308.167 1207.84 309.167 1201.84 310.5C1201.84 310.833 1201.51 311 1200.84 311C1200.51 311 1200.17 310.667 1199.84 310V307L1201.34 304V301.5C1201.34 300.833 1201.01 300.5 1200.34 300.5H1199.84L1198.34 301.5H1192.84L1188.84 303C1188.51 303 1188.34 303 1188.34 303C1179.01 304 1174.34 305.5 1174.34 307.5C1174.34 308.167 1174.01 308.833 1173.34 309.5V311L1174.34 312.5V316L1171.34 319V326L1172.34 327.5L1171.84 328.5L1172.34 329C1172.34 329.333 1172.17 329.5 1171.84 329.5L1172.34 332V341L1173.34 342.5V362.5L1174.34 363.5V381.5C1173.67 382.167 1173.01 384.667 1172.34 389C1170.34 392.667 1168.17 395.667 1165.84 398C1163.84 400 1161.67 401.333 1159.34 402H1151.84C1150.17 401.333 1149.01 400.333 1148.34 399L1149.34 398.5C1149.34 399.167 1149.67 399.5 1150.34 399.5H1151.34C1158.67 394.833 1162.67 391.833 1163.34 390.5L1162.84 388.5V387.5L1165.34 381.5V374.5L1164.34 373.5V371.5L1165.34 370C1164.67 369.333 1164.34 369 1164.34 369V362.5H1163.34V365.5L1162.84 366.5V367.5C1162.84 367.833 1163.01 368.333 1163.34 369C1162.67 371.333 1161.51 373.667 1159.84 376C1159.84 377.333 1158.67 379 1156.34 381C1156.34 381.333 1156.01 382.333 1155.34 384C1155.67 384.667 1155.84 385 1155.84 385C1152.17 387.667 1150.17 389.833 1149.84 391.5C1147.84 392.833 1144.84 394.333 1140.84 396H1129.34L1128.34 395H1122.34C1121.67 394.333 1120.34 393.833 1118.34 393.5C1117.67 393.833 1117.17 394 1116.84 394C1116.84 393.333 1116.51 393 1115.84 393H1110.34L1108.84 392.5H1102.34C1101.67 391.833 1101.17 391.5 1100.84 391.5H1091.84L1090.34 390.5H1078.34L1077.34 389.5H1066.84L1065.84 389H1057.34L1055.84 388H1051.84C1051.17 388 1050.67 387.833 1050.34 387.5C1049.67 387.833 1049.01 388 1048.34 388L1047.34 387H1039.84L1038.34 386H1029.84L1028.34 385H1021.84L1020.84 384.5H1003.34L1001.34 384V384.5C1001.34 385.167 1004.17 385.667 1009.84 386C1009.84 386.667 1009.67 387 1009.34 387H1002.34C1001.67 387 1001.17 386.833 1000.84 386.5C1000.17 386.833 999.673 387 999.34 387C999.34 386.333 999.173 386 998.84 386H994.84C993.173 385 991.007 384.333 988.34 384C984.007 381 979.007 378.667 973.34 377C973.34 376.667 971.173 374.333 966.84 370V371H967.84V381.5L968.84 383V390C969.173 390.667 969.34 391.333 969.34 392C969.34 394.333 970.007 401.333 971.34 413C972.007 413 972.34 413.333 972.34 414V419.5C972.34 419.833 972.507 420.333 972.84 421V422.5C972.507 423.167 972.173 425 971.84 428C971.84 431 969.673 433.5 965.34 435.5H962.34C960.007 433.5 958.84 432 958.84 431L959.34 426.5C959.34 424.5 958.34 423.5 956.34 423.5C956.34 423.167 955.673 422.833 954.34 422.5H952.84C952.84 423.5 951.84 424 949.84 424C948.84 424 947.673 424.667 946.34 426H943.84C941.173 425 936.34 420.333 929.34 412C928.34 410 923.507 404.667 914.84 396C908.173 390 904.84 384.833 904.84 380.5C904.507 377.833 904.007 376.167 903.34 375.5V355H902.84C899.507 356.333 896.673 357.667 894.34 359H893.34C891.007 359 889.007 357.833 887.34 355.5V354.5C888.673 353.167 889.34 351.667 889.34 350C889.007 350 888.84 349.833 888.84 349.5C889.173 348.833 889.34 348.333 889.34 348H882.84C882.84 348 882.84 347.833 882.84 347.5L881.84 348H872.34C864.34 342 860.34 338 860.34 336C853.673 328.667 850.34 324.5 850.34 323.5C850.34 323.167 850.007 322.5 849.34 321.5V319.5L850.34 318H846.34L845.34 319C843.673 318.333 842.84 317.667 842.84 317L843.34 316L842.84 315C843.173 314.667 843.34 314.167 843.34 313.5C841.673 312.167 840.507 310.667 839.84 309V308C841.173 304.667 841.84 303 841.84 303C842.507 303 843.673 301.667 845.34 299L849.84 295H850.34V295.5L847.34 300V300.5H847.84L859.84 296C861.84 295 867.173 293 875.84 290C879.507 287.333 888.007 278.833 901.34 264.5L909.34 255L915.84 247H913.34L911.34 246.5C911.34 246.833 911.173 247 910.84 247L903.84 240C902.173 238.333 899.173 236.833 894.84 235.5H890.34C888.673 234.833 883.673 230.667 875.34 223C874.34 222.667 871.507 219 866.84 212C865.84 211.333 862.507 208 856.84 202C851.173 198 848.34 194 848.34 190C847.673 188 847.173 186.667 846.84 186V180.5C849.173 174.833 851.673 172 854.34 172L854.84 173V175L853.84 176V178C854.507 178 855.34 178.333 856.34 179H857.34C858.007 178.333 859.673 177.833 862.34 177.5L872.34 173.5H876.34L897.84 165.5L899.34 166.5H899.84L907.84 163H909.84L910.84 163.5C911.173 162.5 915.84 160.667 924.84 158L927.34 154V92L926.34 90.5V68.5C925.673 67.8333 925.34 67.5 925.34 67.5V52.5C925.34 52.1667 925.007 50.8333 924.34 48.5V44H923.84C923.173 47.6667 922.507 49.8333 921.84 50.5V54.5L920.84 56V61C920.507 63 920.34 64.1667 920.34 64.5V69C920.673 71 920.84 72.1667 920.84 72.5V75C920.84 75.6667 920.673 76 920.34 76C919.34 76 918.507 73.1667 917.84 67.5C917.507 67.5 917.34 67.3333 917.34 67V62.5C917.34 61.5 917.507 60.1667 917.84 58.5C917.507 58.1667 917.34 57.1667 917.34 55.5L918.34 54V47.5L919.34 46V41.5C920.34 38.8333 921.34 35.1667 922.34 30.5C924.34 23.5 926.173 20 927.84 20L928.84 21.5V27.5C928.84 28.1667 930.007 30.1667 932.34 33.5C932.34 36.1667 933.173 37.6667 934.84 38C935.173 38 935.84 37.3333 936.84 36L938.34 37H938.84C942.173 33.3333 945.507 30 948.84 27H949.84C966.84 40.6667 975.34 49.1667 975.34 52.5C976.673 52.5 978.007 55.1667 979.34 60.5C979.673 61.8333 979.84 63 979.84 64H982.84C983.507 64.3333 984.34 65.6667 985.34 68L986.34 67.5H986.84C988.84 67.5 990.34 69 991.34 72V80L990.84 81.5V90.5L989.84 92V98L988.84 99.5V104L987.84 105V108.5C987.84 108.833 987.673 110 987.34 112V116L986.34 117C986.34 120.333 985.507 126.667 983.84 136C984.173 136.667 984.34 137.167 984.34 137.5H983.84C984.173 138.167 984.34 138.5 984.34 138.5C984.007 140.167 983.507 143.5 982.84 148.5V152.5C984.173 152.5 985.673 153 987.34 154H996.84C997.507 154.667 999.673 155.5 1003.34 156.5L1004.34 156C1008.01 157.333 1012.34 160.833 1017.34 166.5C1018.67 166.5 1020.67 168.167 1023.34 171.5C1024.34 171.5 1025.51 172.333 1026.84 174C1027.51 174 1030.34 173 1035.34 171C1039.34 169.667 1042.01 168.333 1043.34 167C1034.67 158 1029.51 151.5 1027.84 147.5C1024.84 145.833 1021.01 141.667 1016.34 135C1015.67 134.667 1014.17 134 1011.84 133C1007.17 129 1004.84 125.833 1004.84 123.5C1003.51 118.5 1002.67 115.833 1002.34 115.5V108.5C1005.67 98.5 1008.34 93.5 1010.34 93.5H1012.84C1013.51 93.5 1013.84 93.6667 1013.84 94V94.5L1011.84 98.5V105.5C1011.84 105.833 1012.67 106.5 1014.34 107.5H1015.34L1016.84 106.5H1022.34C1023.67 105.833 1027.34 105 1033.34 104C1034.34 103 1034.84 102 1034.84 101H1037.84C1038.84 102.333 1041.51 103.667 1045.84 105C1046.51 106.333 1048.34 108.167 1051.34 110.5C1051.34 111.5 1051.67 112 1052.34 112H1058.34L1059.84 111H1063.34L1064.84 112H1065.84L1066.84 111H1077.34C1078.01 110.333 1080.51 109.5 1084.84 108.5C1084.84 105.833 1085.17 104.333 1085.84 104V94.5L1086.84 93.5V82.5L1087.84 81V70L1088.34 68.5V63.5C1088.01 62.8333 1087.67 61 1087.34 58C1086.01 57.3333 1084.51 53.8333 1082.84 47.5C1082.51 45.5 1082.01 44.1667 1081.34 43.5V37L1080.84 35.5V30C1081.17 29.3333 1081.51 28.1667 1081.84 26.5C1081.51 26.1667 1081.34 25.8333 1081.34 25.5C1082.01 25.5 1082.84 23.5 1083.84 19.5C1084.17 19.5 1085.51 17.3333 1087.84 13C1087.84 12.6667 1086.84 11.3333 1084.84 9V8C1084.84 7.66667 1085.34 7.33333 1086.34 7C1086.34 5.33333 1085.84 4 1084.84 3V2C1084.84 1.66667 1085.34 1.16667 1086.34 0.5ZM1070.84 22C1071.51 22 1071.84 22.1667 1071.84 22.5V26H1070.84V22ZM924.34 41V43H925.34V41H924.34ZM1091.34 68V73.5L1090.34 75V85L1089.34 86V95.5L1088.34 97V105L1087.84 106.5V108C1091.84 107.333 1094.67 106.5 1096.34 105.5V101.5L1097.34 100.5V92L1098.34 90.5V78.5L1099.34 77.5V72C1097.34 71.3333 1096.34 70 1096.34 68H1095.84C1095.84 69 1095.51 69.5 1094.84 69.5H1092.84C1092.51 69.5 1092.34 69 1092.34 68H1091.34ZM933.34 101V112.5L932.34 114L933.34 115.5V117L932.34 118.5L933.34 119.5V121C932.673 123 932.34 124.167 932.34 124.5V143.5L931.34 145L932.34 146V147L931.34 148.5V151C930.673 150.667 930.173 150.5 929.84 150.5V151L930.34 153.5L931.34 153V155C931.673 155.667 932.007 156 932.34 156C932.34 155.333 933.84 154.667 936.84 154V149.5L935.84 148L936.84 146.5V117.5C936.84 116.833 936.507 116.5 935.84 116.5C936.507 115.5 936.84 114.667 936.84 114V110.5C936.84 109.833 936.673 109.167 936.34 108.5C936.673 108.167 936.84 107.833 936.84 107.5C936.173 107.5 935.673 105.833 935.34 102.5L933.84 101H933.34ZM1139.34 136.5V137.5H1143.34L1144.34 136.5H1151.84C1152.51 136.5 1153.01 136.667 1153.34 137C1162.67 132.333 1171.51 127.167 1179.84 121.5L1187.34 113.5C1186.67 111.833 1185.51 110.667 1183.84 110H1181.34C1170.34 118 1161.84 123.833 1155.84 127.5C1150.84 129.833 1146.17 132.5 1141.84 135.5L1139.34 136.5ZM1084.84 142.5V145.5C1086.51 149.167 1087.67 151 1088.34 151C1088.67 151 1090.51 147.333 1093.84 140V133.5C1094.51 132.833 1094.84 132.333 1094.84 132V122.5C1093.17 125.167 1090.01 131.667 1085.34 142C1085.01 142 1084.84 142.167 1084.84 142.5ZM1129.84 187.5C1130.17 188.167 1130.51 188.5 1130.84 188.5H1131.84L1142.84 185H1146.84C1147.51 183.667 1149.17 183 1151.84 183C1156.17 181.667 1158.34 180.833 1158.34 180.5V180H1157.84C1157.17 180.333 1156.67 180.5 1156.34 180.5C1156.34 179.833 1156.17 179.5 1155.84 179.5C1155.17 180.167 1152.34 180.833 1147.34 181.5C1147.34 182.167 1144.51 182.833 1138.84 183.5C1133.17 185.167 1130.17 186.5 1129.84 187.5ZM1119.34 190.5V191C1119.34 191.667 1119.67 192 1120.34 192H1121.34C1123.67 191.333 1124.84 190.833 1124.84 190.5V189.5L1123.84 188C1120.84 188.667 1119.34 189.5 1119.34 190.5ZM1052.84 209.5H1050.84C1050.17 209.5 1049.67 209.5 1049.34 209.5C1048.34 209.5 1047.17 210.167 1045.84 211.5H1041.34L1039.84 210.5H1038.34C1030.01 212.167 1025.51 213 1024.84 213C1021.84 213 1014.01 213 1001.34 213C1001.34 213.667 1001.01 214 1000.34 214H994.84C993.84 214.667 989.84 215.667 982.84 217C982.84 217.333 980.84 218 976.84 219C976.173 219.333 975.507 220.5 974.84 222.5V228L973.84 229.5V235.5L972.84 236.5V242L972.34 243V248C971.673 250 971.007 255.167 970.34 263.5H970.84C978.84 260.167 987.84 255.833 997.84 250.5H998.84V249.5C996.84 247.167 995.84 245.833 995.84 245.5V244.5L997.34 242C997.007 241.333 996.84 240.833 996.84 240.5L999.34 237C998.673 235 997.673 234 996.34 234C996.007 234.333 995.507 234.5 994.84 234.5L994.34 233.5L997.34 232H997.84H998.84L998.34 233V233.5C999.007 233.5 999.673 233.833 1000.34 234.5H1002.34C1005.34 232.833 1016.51 228 1035.84 220C1039.84 218 1043.67 216.333 1047.34 215L1048.34 215.5C1051.34 213.5 1054.34 212.167 1057.34 211.5C1062.67 208.5 1065.34 206.833 1065.34 206.5V206H1063.84C1061.51 207.333 1058.01 208.5 1053.34 209.5C1053.34 209.5 1053.17 209.5 1052.84 209.5ZM1117.34 212.5L1117.84 214.5V223.5L1116.84 224.5L1117.84 226V233L1116.84 234.5L1117.84 235.5L1116.84 237V247C1116.84 247.333 1117.17 247.5 1117.84 247.5H1118.34C1119.01 247.5 1119.34 247.333 1119.34 247V246L1118.34 244.5V241C1118.34 240.333 1118.51 239.833 1118.84 239.5C1118.51 238.833 1118.34 238.167 1118.34 237.5C1119.01 237.5 1119.34 237.167 1119.34 236.5V236L1118.34 235V232.5C1118.34 232.167 1118.84 232 1119.84 232L1119.34 229.5C1119.67 229.5 1119.84 229.333 1119.84 229L1120.84 229.5H1121.34V229L1120.34 228V222.5L1120.84 220.5C1120.51 220.5 1120.34 220.333 1120.34 220C1121.34 219.333 1121.84 218.833 1121.84 218.5V217C1121.17 214.333 1120.01 212.667 1118.34 212L1117.34 212.5ZM1208.84 211.5V212C1208.84 212.333 1208.17 213 1206.84 214V213.5C1206.84 213.167 1207.51 212.5 1208.84 211.5ZM1205.84 213H1206.84H1205.84ZM964.34 224V228L963.34 229.5V235.5L962.34 236.5V242L961.34 243V248.5L960.84 250V255.5L959.84 257V262.5L958.84 264V268L959.34 269C961.34 268.333 962.34 267 962.34 265V261L963.34 259.5V254L964.34 252.5V247L964.84 246V239.5L965.84 238.5V232L966.84 231V224.5L967.84 223.5V223H966.34C965.673 223.667 965.007 224 964.34 224ZM1084.34 228C1084.34 229.333 1079.67 234.667 1070.34 244C1059.67 253 1053.01 257.5 1050.34 257.5V258L1050.84 258.5C1047.51 261.5 1044.34 263.5 1041.34 264.5H1036.34L1035.34 265.5H1030.34L1028.84 266H1028.34C1027.34 266 1026.84 265.833 1026.84 265.5L1024.84 266H1017.34C1016.67 265.333 1013.34 263.667 1007.34 261C993.673 272.667 980.84 284.333 968.84 296C967.84 296.667 967.173 297 966.84 297V304L965.84 305.5V306H966.84C967.507 306 973.007 301.833 983.34 293.5C990.007 288.167 996.173 282.667 1001.84 277H1002.34V277.5C1001.01 280.167 997.173 284.5 990.84 290.5C986.507 295.833 980.007 301.833 971.34 308.5C967.673 311.5 965.84 313.167 965.84 313.5V324.5L964.84 325.5V337L965.84 338.5V342H966.84C973.173 338.333 976.34 336.333 976.34 336H975.34V335H976.34L977.34 336H978.84V335H976.34C981.34 331.333 998.173 325.667 1026.84 318C1027.17 318 1031.84 316.667 1040.84 314V311L1039.84 310V301L1040.84 299.5V295.5C1041.51 294.833 1042.34 292.333 1043.34 288C1044.01 287 1044.84 284.333 1045.84 280C1047.17 277.333 1047.84 275 1047.84 273C1047.51 273 1047.34 273 1047.34 273H1044.84H1042.84C1042.17 273 1041.84 272.833 1041.84 272.5V271.5L1052.34 265.5C1053.34 263.5 1054.17 262.5 1054.84 262.5C1054.84 263.167 1054.84 263.833 1054.84 264.5C1062.84 261.5 1074.17 252.833 1088.84 238.5C1088.51 237.833 1087.17 235.5 1084.84 231.5V228H1084.34ZM925.84 231H927.34C929.34 230 930.34 229 930.34 228H929.84C927.84 229 926.507 230 925.84 231ZM923.84 231V232H924.84C924.84 231.333 924.507 231 923.84 231ZM991.34 232.5C992.007 232.833 992.34 233.167 992.34 233.5L989.34 235.5L988.84 234.5C990.173 233.167 991.007 232.5 991.34 232.5ZM1119.34 237.5V239C1120.01 239 1120.34 238.667 1120.34 238V237.5H1119.34ZM1077.34 256C1077.34 256.667 1079.34 257.667 1083.34 259L1090.84 265.5C1091.84 265.5 1092.34 267.167 1092.34 270.5C1092.34 272.167 1094.51 273.167 1098.84 273.5C1098.84 274.167 1099.17 274.667 1099.84 275H1100.84C1113.17 264.667 1119.34 258.667 1119.34 257L1119.84 256L1118.34 253.5V251.5L1119.34 250.5C1119.34 249.833 1119.01 249.5 1118.34 249.5H1113.34C1111.01 252.5 1109.51 254 1108.84 254C1108.17 254 1107.51 254.167 1106.84 254.5H1103.84C1102.17 254.5 1098.01 250.167 1091.34 241.5L1077.34 256ZM990.84 241.5H991.34V242H990.84V241.5ZM1047.34 291V295L1046.34 296V298.5H1047.34L1050.34 289H1050.84V292L1049.84 293.5V297.5L1048.84 299V300H1049.34C1054.01 297.667 1056.34 295.5 1056.34 293.5C1056.34 290.833 1059.51 282.5 1065.84 268.5C1066.17 268.5 1067.01 267.167 1068.34 264.5V264H1067.84C1064.17 267 1058.67 270 1051.34 273C1051.34 274 1050.17 279 1047.84 288C1047.84 289.333 1047.67 290.333 1047.34 291ZM853.34 291.5L853.84 292L851.84 294.5L851.34 293.5C851.34 293.167 852.007 292.5 853.34 291.5ZM956.34 305V306.5C957.007 306.5 957.34 306.333 957.34 306V305H956.34ZM956.34 307V309C957.007 309 957.34 308.667 957.34 308V307H956.34ZM1263.84 312.5H1264.84V313.5H1263.84V312.5ZM1267.84 313C1267.84 313 1268.67 314 1270.34 316V318.5C1269.67 319.5 1269.01 321.5 1268.34 324.5C1262.67 333.5 1256.17 340 1248.84 344L1239.84 346L1238.84 346.5H1237.84C1237.17 346.5 1236.84 346.167 1236.84 345.5C1237.51 345.5 1239.67 343.667 1243.34 340C1252.67 335 1259.01 328.833 1262.34 321.5C1261.67 320.833 1261.34 320.5 1261.34 320.5V318.5C1261.34 318.167 1261.84 317.833 1262.84 317.5C1263.17 317.833 1263.34 318.5 1263.34 319.5H1263.84C1264.51 319.5 1265.51 317.5 1266.84 313.5L1267.84 313ZM1163.34 321.5V347.5L1164.34 348.5L1163.34 350V352.5L1164.34 354L1163.34 355V357C1163.34 357.333 1163.84 357.833 1164.84 358.5H1165.34V358L1164.34 356.5V355L1165.34 353.5V351L1164.34 349.5V349H1164.84C1165.51 349.333 1166.01 349.5 1166.34 349.5V348C1165.67 347.333 1165.34 347 1165.34 347L1166.34 345.5V340.5H1166.84V343.5H1167.84V340H1168.84V340.5H1169.84C1169.84 339.833 1170.17 339.167 1170.84 338.5V337.5L1169.84 336.5V334.5C1169.84 333.833 1170.01 333.167 1170.34 332.5C1170.01 332.167 1169.84 331.833 1169.84 331.5C1170.51 331.5 1170.84 331.167 1170.84 330.5V329.5L1169.84 328.5V326.5L1170.84 325V320C1170.84 319.333 1170.51 319 1169.84 319H1168.84C1168.17 319.667 1166.67 320.167 1164.34 320.5L1163.34 321.5ZM1167.84 325H1168.84V326.5H1167.84V325ZM1121.84 335V339C1120.17 344.333 1117.67 350.667 1114.34 358C1114.34 359 1114.01 359.833 1113.34 360.5C1113.34 361.167 1113.67 361.5 1114.34 361.5H1114.84C1118.84 359.833 1121.34 357.667 1122.34 355C1124.34 351.333 1125.51 347.667 1125.84 344C1126.84 343.333 1128.01 339.333 1129.34 332C1129.67 332 1129.84 331.833 1129.84 331.5C1129.84 330.833 1129.67 330.5 1129.34 330.5H1128.34C1124.01 331.833 1121.84 333.333 1121.84 335ZM1167.84 330H1168.84V337.5C1168.84 338.167 1168.51 338.5 1167.84 338.5H1167.34C1167.01 338.5 1166.67 338 1166.34 337C1166.67 337 1166.84 336.833 1166.84 336.5L1167.34 337H1167.84V330ZM912.84 335V339L912.34 340C912.673 340 912.84 340.167 912.84 340.5C915.173 340.5 916.34 339.167 916.34 336.5C916.007 336.167 915.84 335.667 915.84 335C916.173 334.667 916.673 334.5 917.34 334.5V331.5H916.34C916.007 331.5 914.84 332.667 912.84 335ZM983.84 332.5V333H984.84V332.5H983.84ZM980.84 334H982.34V333H981.84C981.173 333.333 980.84 333.667 980.84 334ZM979.34 335H980.34V334H979.84C979.507 334 979.34 334.333 979.34 335ZM1106.84 337.5V341C1107.51 341.667 1107.84 342.5 1107.84 343.5H1108.84C1110.17 339.833 1110.84 337.5 1110.84 336.5C1108.17 336.5 1106.84 336.833 1106.84 337.5ZM972.84 336.5H973.84H972.84ZM1011.84 356C1011.84 356.667 1013.34 357.5 1016.34 358.5C1016.34 359.167 1016.67 359.5 1017.34 359.5L1018.34 359H1022.34C1023.01 358.333 1026.34 357.333 1032.34 356C1032.34 355.333 1034.67 354.667 1039.34 354C1039.34 353.667 1039.67 353.167 1040.34 352.5C1040.67 352.5 1040.84 352.667 1040.84 353C1055.17 348.667 1063.34 346.5 1065.34 346.5L1065.84 345C1065.84 343 1064.01 341.167 1060.34 339.5H1058.34L1043.84 344L1029.84 348.5C1020.17 351.833 1014.17 354.333 1011.84 356ZM900.34 347.5C902.007 346.167 903.34 345.5 904.34 345.5V343H903.84C901.507 344.667 900.34 346.167 900.34 347.5ZM1042.34 356L1039.84 355.5C1039.84 356.833 1038.51 357.667 1035.84 358C1030.84 361.667 1027.34 363.667 1025.34 364V364.5C1025.34 365.167 1028.67 366 1035.34 367C1035.34 367.333 1035.51 367.5 1035.84 367.5H1040.34L1041.84 368.5H1048.34L1049.84 369.5H1063.34L1064.84 370H1065.84L1066.84 369.5H1081.34L1082.84 368.5H1089.34L1090.84 367.5H1093.34V367L1092.34 365.5V362.5V360.5C1092.01 360.5 1091.67 360 1091.34 359V358.5C1091.34 357.5 1092.51 356.833 1094.84 356.5L1095.84 355V353.5C1095.84 352.833 1095.51 352.5 1094.84 352.5L1091.84 356C1089.51 354.333 1088.17 353.5 1087.84 353.5H1086.84L1085.34 354.5H1080.34C1079.67 354.5 1076.84 352.167 1071.84 347.5C1069.51 347.167 1068.01 346.833 1067.34 346.5C1058.67 349.5 1053.17 351.5 1050.84 352.5C1046.17 353.5 1043.34 354.667 1042.34 356ZM911.84 352.5V365.5C911.84 366.167 912.173 367 912.84 368C912.507 369 912.173 369.5 911.84 369.5L912.34 371.5V376.5L912.84 377.5V379.5C912.84 380.167 912.84 380.833 912.84 381.5C912.84 381.833 912.84 382.333 912.84 383L912.34 384.5L912.84 385.5V390.5C914.507 393.5 915.673 395 916.34 395V394C915.34 393 914.84 390.167 914.84 385.5V374L913.84 373V368C913.84 367 914.007 366.5 914.34 366.5L913.84 364.5V355C913.84 354.667 914.173 353.5 914.84 351.5V349.5C912.84 349.5 911.84 350.5 911.84 352.5ZM1166.34 350.5V351.5H1166.84V350.5H1166.34Z" fill="#f80"/>
</svg>